<svg xmlns="http://www.w3.org/2000/svg" width="255" height="255" viewBox="0 0 255 255">
  <g id="Group_355" data-name="Group 355" transform="translate(0.385 -0.283)">
    <circle id="Ellipse_66" data-name="Ellipse 66" cx="127.5" cy="127.5" r="127.5" transform="translate(-0.385 0.283)" fill="#fff"/>
    <g id="Group_319" data-name="Group 319" transform="translate(63.084 49.32)">
      <path id="Path_3172" data-name="Path 3172" d="M-2735.431,11.082h-3.283c-43.325,0-62.48,36.041-62.667,36.407a2.474,2.474,0,0,0,.017,2.307c.194.359,19.185,34.8,61.977,36.823a8.26,8.26,0,0,0,2.315.078c.546.008,1.091.013,1.642.013a2.371,2.371,0,0,0,.671-.091c42.792-2.025,61.787-36.464,61.979-36.823a2.485,2.485,0,0,0,.02-2.307C-2672.95,47.123-2692.1,11.082-2735.431,11.082Zm-1.639,5.465a27.6,27.6,0,0,1,27.562,27.571,27.59,27.59,0,0,1-27.562,27.562,27.594,27.594,0,0,1-27.567-27.562A27.6,27.6,0,0,1-2737.071,16.547Zm0,65.2c-36.968-.766-55.56-27.252-59.244-33.145,2.91-4.826,15.393-23.308,39.248-30.07a32.454,32.454,0,0,0-12.52,25.588,32.554,32.554,0,0,0,32.52,32.513,32.55,32.55,0,0,0,32.513-32.513,32.458,32.458,0,0,0-12.515-25.588c23.853,6.762,36.335,25.246,39.245,30.07C-2681.511,54.5-2700.1,80.983-2737.075,81.745Z" transform="translate(2801.658 27.166)" fill="#0d4be3"/>
      <ellipse id="Ellipse_74" data-name="Ellipse 74" cx="8.524" cy="8.524" rx="8.524" ry="8.524" transform="translate(56.064 62.759)" fill="#0d4be3"/>
      <path id="Path_3173" data-name="Path 3173" d="M-2785.72,20.846a2.475,2.475,0,0,0,2.121,1.2,2.487,2.487,0,0,0,1.278-.356,2.476,2.476,0,0,0,.841-3.4l-12.748-21.13a2.473,2.473,0,0,0-3.4-.841,2.473,2.473,0,0,0-.841,3.4Z" transform="translate(2803.604 16.788)" fill="#0d4be3"/>
      <path id="Path_3174" data-name="Path 3174" d="M-2762.347,14.328a2.473,2.473,0,0,0,2.475-2.475V-9.126a2.474,2.474,0,0,0-2.475-2.475,2.476,2.476,0,0,0-2.475,2.475V11.852A2.475,2.475,0,0,0-2762.347,14.328Z" transform="translate(2826.935 11.601)" fill="#0d4be3"/>
      <path id="Path_3175" data-name="Path 3175" d="M-2736.661,21.685a2.483,2.483,0,0,0,1.278.356,2.472,2.472,0,0,0,2.121-1.2l12.75-21.13a2.477,2.477,0,0,0-.842-3.4,2.474,2.474,0,0,0-3.4.841l-12.75,21.13A2.473,2.473,0,0,0-2736.661,21.685Z" transform="translate(2845.438 16.79)" fill="#0d4be3"/>
      <path id="Path_3176" data-name="Path 3176" d="M-2733.262,58.6a2.473,2.473,0,0,0-3.4-.841,2.477,2.477,0,0,0-.842,3.4l12.75,21.135a2.475,2.475,0,0,0,2.121,1.192,2.517,2.517,0,0,0,1.278-.352,2.48,2.48,0,0,0,.842-3.4Z" transform="translate(2845.438 58.949)" fill="#0d4be3"/>
      <path id="Path_3177" data-name="Path 3177" d="M-2761.823,65.05a2.474,2.474,0,0,0-2.476,2.475V88.513a2.476,2.476,0,0,0,2.476,2.474,2.476,2.476,0,0,0,2.475-2.474V67.525A2.474,2.474,0,0,0-2761.823,65.05Z" transform="translate(2827.295 64.198)" fill="#0d4be3"/>
      <path id="Path_3178" data-name="Path 3178" d="M-2782.321,57.756a2.473,2.473,0,0,0-3.4.841l-12.746,21.136a2.477,2.477,0,0,0,.841,3.4,2.494,2.494,0,0,0,1.277.354,2.48,2.48,0,0,0,2.121-1.194l12.748-21.135A2.478,2.478,0,0,0-2782.321,57.756Z" transform="translate(2803.604 58.949)" fill="#0d4be3"/>
    </g>
  </g>
</svg>
